<svg width="39" height="41" viewBox="0 0 39 41" fill="none" xmlns="http://www.w3.org/2000/svg">
<path d="M20.6622 20.248H17.5581V31.2358H20.6622V20.248Z" fill="#FFD34D"/>
<path d="M13.0324 16.2177H5.90011C2.65386 16.2177 0 13.5307 0 10.244C0 6.95728 2.65386 4.24634 5.90011 4.24634H10.1415V7.34113H5.90011C4.33622 7.34113 3.05668 8.63663 3.05668 10.22C3.05668 11.8034 4.33622 13.0989 5.90011 13.0989H13.0324V16.1937V16.2177Z" fill="#F2BA49"/>
<path d="M25.1879 16.2176H32.3201C35.5901 16.2176 38.2202 13.5307 38.2202 10.2439C38.2202 6.95722 35.5664 4.27026 32.3201 4.27026H28.0787V7.36506H32.3201C33.884 7.36506 35.1635 8.66055 35.1635 10.2439C35.1635 11.8273 33.884 13.1228 32.3201 13.1228H25.1879V16.2176Z" fill="#F2BA49"/>
<path d="M16.1128 15.8817V19.1444C16.1128 20.32 17.0606 21.2796 18.2217 21.2796H19.9751C21.1362 21.2796 22.084 20.32 22.084 19.1444V15.8817H16.1128Z" fill="#F2BA49"/>
<path d="M7.58258 3.0708V7.53306C7.58258 13.9626 12.7481 19.1925 19.0984 19.1925C25.4488 19.1925 30.6143 13.9626 30.6143 7.53306V3.0708H7.58258Z" fill="#FFD34D"/>
<path d="M32.5573 0H5.66324V3.0708H32.5573V0Z" fill="#F2BA49"/>
<path d="M22.5104 31.2358H15.7099C13.9802 31.2358 12.6058 32.6513 12.6058 34.3786H25.6382C25.6382 32.6273 24.2402 31.2358 22.5341 31.2358H22.5104Z" fill="#F2BA49"/>
<path d="M27.9604 34.4026H10.2601V41H27.9604V34.4026Z" fill="#FFD34D"/>
<path d="M22.3682 36.2018H15.8521V39.2006H22.3682V36.2018Z" fill="#F2BA49"/>
<path d="M19.0983 4.87012L20.5911 7.91693L23.9084 8.42074L21.5152 10.7718L22.0839 14.1305L19.0983 12.5471L16.1364 14.1305L16.7051 10.7718L14.3119 8.42074L17.6292 7.91693L19.0983 4.87012Z" fill="#F2BA49"/>
</svg>
