<svg width="63" height="78" viewBox="0 0 63 78" fill="none" xmlns="http://www.w3.org/2000/svg">
<path d="M31.5242 61.8604C48.6319 61.8604 62.5111 48.0124 62.5242 30.9302C62.5373 13.8479 48.6794 0 31.5717 0C14.464 0 0.58484 13.8479 0.57174 30.9302C0.55864 48.0124 14.4166 61.8604 31.5242 61.8604Z" fill="url(#paint0_linear_12_1232)"/>
<path d="M20.0463 77.7502L13.852 72.2506C13.3932 72.0215 13.1637 71.7923 12.4755 71.7923L4.6753 71.1049C4.21646 71.1049 3.75763 70.4174 3.98705 69.9591L14.9991 44.7528L32.4348 52.3147L21.1934 77.521C21.1934 77.9793 20.2757 78.2085 19.8168 77.7502H20.0463Z" fill="url(#paint1_linear_12_1232)"/>
<path d="M43.2174 77.7502L49.4117 72.2506C49.8705 72.0215 50.0999 71.7923 50.7882 71.7923L58.5884 71.1049C59.0472 71.1049 59.506 70.4174 59.2766 69.9591L48.2646 44.7528L30.8289 52.3147L42.0703 77.521C42.0703 77.9793 42.988 78.2085 43.4468 77.7502H43.2174Z" fill="url(#paint2_linear_12_1232)"/>
<path d="M31.4665 60.0897C47.6934 60.0897 60.8623 46.9649 60.88 30.7747C60.8978 14.5845 47.7576 1.45972 31.5306 1.45972C15.3037 1.45972 2.1348 14.5845 2.11708 30.7747C2.09936 46.9649 15.2395 60.0897 31.4665 60.0897Z" fill="url(#paint3_linear_12_1232)"/>
<path d="M46.7473 46.0058C55.169 37.594 55.169 23.9556 46.7473 15.5437C38.3255 7.13185 24.6712 7.13185 16.2494 15.5437C7.82766 23.9556 7.82766 37.594 16.2494 46.0058C24.6712 54.4177 38.3255 54.4177 46.7473 46.0058Z" fill="url(#paint4_linear_12_1232)"/>
<g style="mix-blend-mode:overlay">
<path d="M11.0988 31.9204C11.0988 20.0047 20.7344 10.3805 32.6641 10.3805C44.5938 10.3805 43.4467 12.672 47.3468 16.1092C43.4467 11.9845 37.9407 9.23474 31.7464 9.23474C19.8167 9.23474 10.1812 18.859 10.1812 30.7747C10.1812 42.6904 12.9342 42.4613 17.0637 46.3568C13.393 42.4613 11.3282 37.42 11.3282 31.6913L11.0988 31.9204Z" fill="white"/>
</g>
<path d="M31.517 9.46399H31.0581C42.0702 9.69314 51.0175 18.6299 51.0175 29.8582C51.0175 41.0865 41.8408 50.2524 30.5993 50.2524C19.3579 50.2524 10.4106 41.3156 10.1812 30.3165V30.7748C10.1812 42.6905 19.8167 52.3148 31.7464 52.3148C43.6761 52.3148 53.3116 42.6905 53.3116 30.7748C53.3116 18.8591 43.4467 9.46399 31.517 9.46399Z" fill="#9B9B9B"/>
<path d="M38.1703 37.4202V41.0866H23.4876V38.1076L31.0583 31.004C31.7466 30.3166 32.4348 29.6292 32.6643 28.9417C32.8937 28.4834 33.1231 27.796 33.1231 27.3377C33.1231 26.6502 32.8937 25.9628 32.4348 25.5045C31.976 25.0462 31.0583 24.817 30.1407 24.817C29.223 24.817 28.5348 24.817 27.8465 25.2753C27.1582 25.5045 26.6994 26.1919 26.0112 26.6502L22.7993 24.5879C23.4876 23.4421 24.6347 22.5255 26.0112 21.8381C27.3877 21.1507 28.7642 20.9215 30.5995 20.9215C32.4348 20.9215 33.3525 21.1507 34.4996 21.609C35.6467 22.0673 36.3349 22.7547 37.0232 23.6713C37.7114 24.5879 37.9409 25.5045 37.9409 26.6502C37.9409 27.796 37.9409 28.7126 37.2526 29.6292C36.5644 30.5457 35.8761 31.6915 34.729 32.8372L30.3701 36.9619H38.6291L38.1703 37.4202Z" fill="#565656"/>
<defs>
<linearGradient id="paint0_linear_12_1232" x1="3.05272" y1="19.2233" x2="60.5283" y2="42.8749" gradientUnits="userSpaceOnUse">
<stop stop-color="#D5D5D5"/>
<stop offset="0.1" stop-color="#D7D7D7"/>
<stop offset="0.3" stop-color="#CECECE"/>
<stop offset="0.7" stop-color="#9B9B9B"/>
<stop offset="1" stop-color="white"/>
</linearGradient>
<linearGradient id="paint1_linear_12_1232" x1="14.0814" y1="69.73" x2="19.1189" y2="58.9555" gradientUnits="userSpaceOnUse">
<stop stop-color="#D60909"/>
<stop offset="1" stop-color="#A00505"/>
</linearGradient>
<linearGradient id="paint2_linear_12_1232" x1="48.494" y1="69.5008" x2="43.6859" y2="57.8103" gradientUnits="userSpaceOnUse">
<stop stop-color="#D60909"/>
<stop offset="1" stop-color="#A00505"/>
</linearGradient>
<linearGradient id="paint3_linear_12_1232" x1="10.7454" y1="10.0273" x2="52.3194" y2="51.741" gradientUnits="userSpaceOnUse">
<stop stop-color="#D5D5D5"/>
<stop offset="0.1" stop-color="#D7D7D7"/>
<stop offset="0.3" stop-color="#CECECE"/>
<stop offset="0.7" stop-color="#9B9B9B"/>
<stop offset="1" stop-color="white"/>
</linearGradient>
<linearGradient id="paint4_linear_12_1232" x1="44.1031" y1="43.3648" x2="17.7511" y2="16.9818" gradientUnits="userSpaceOnUse">
<stop stop-color="white"/>
<stop offset="0.3" stop-color="#9B9B9B"/>
<stop offset="0.7" stop-color="#CECECE"/>
<stop offset="0.9" stop-color="#D7D7D7"/>
<stop offset="1" stop-color="#D5D5D5"/>
</linearGradient>
</defs>
</svg>
