<svg width="63" height="78" viewBox="0 0 63 78" fill="none" xmlns="http://www.w3.org/2000/svg">
<path d="M62.5398 30.9328C62.5398 13.8609 48.6606 0.0166059 31.5398 0.0107059C14.419 0.00480582 0.539793 13.8395 0.539794 30.9114C0.539794 47.9833 14.419 61.8275 31.5398 61.8334C48.6606 61.8393 62.5398 48.0046 62.5398 30.9328Z" fill="url(#paint0_linear_12_1243)"/>
<path d="M19.9963 77.7503L13.7964 72.2548C13.3372 72.0258 13.1076 71.7968 12.4187 71.7968L4.61152 71.1099C4.15227 71.1099 3.69303 70.4229 3.92265 69.965L14.9446 44.7772L32.3959 52.3336L21.1444 77.5213C21.1444 77.9793 20.2259 78.2082 19.7667 77.7503H19.9963Z" fill="url(#paint1_linear_12_1243)"/>
<path d="M43.1882 77.7503L49.3881 72.2548C49.8473 72.0258 50.0769 71.7968 50.7658 71.7968L58.573 71.1099C59.0322 71.1099 59.4915 70.4229 59.2619 69.965L48.2399 44.7772L30.7886 52.3336L42.0401 77.5213C42.0401 77.9793 42.9586 78.2082 43.4179 77.7503H43.1882Z" fill="url(#paint2_linear_12_1243)"/>
<path d="M60.8015 31.0282C60.8015 14.842 47.6416 1.71416 31.4081 1.70631C15.1745 1.69845 2.01465 14.8136 2.01465 30.9998C2.01465 47.186 15.1745 60.3139 31.4081 60.3217C47.6417 60.3296 60.8015 47.2144 60.8015 31.0282Z" fill="url(#paint3_linear_12_1243)"/>
<path d="M52.4225 35.7001C55.1447 24.1268 47.943 12.5442 36.3371 9.82972C24.7312 7.11522 13.1161 14.2967 10.3939 25.8701C7.67181 37.4434 14.8735 49.026 26.4794 51.7405C38.0853 54.455 49.7004 47.2735 52.4225 35.7001Z" fill="url(#paint4_linear_12_1243)"/>
<g style="mix-blend-mode:overlay">
<path d="M11.0411 31.9544C11.0411 20.0474 20.6852 10.4303 32.6256 10.4303C44.566 10.4303 43.4179 12.7201 47.3215 16.1548C43.4179 12.0332 37.907 9.2854 31.7071 9.2854C19.7667 9.2854 10.1226 18.9025 10.1226 30.8095C10.1226 42.7164 12.878 42.4874 17.0113 46.3801C13.3373 42.4874 11.2707 37.4499 11.2707 31.7254L11.0411 31.9544Z" fill="white"/>
</g>
<g style="mix-blend-mode:multiply" opacity="0.5">
<path d="M31.4775 9.51438H31.0183C42.0402 9.74336 50.9955 18.6736 50.9955 29.8936C50.9955 41.1135 41.8106 50.2727 30.559 50.2727C19.3075 50.2727 10.3522 41.3425 10.1226 30.3515V30.8095C10.1226 42.7164 19.7667 52.3335 31.7071 52.3335C43.6475 52.3335 53.2917 42.7164 53.2917 30.8095C53.2917 18.9025 43.6475 9.2854 31.7071 9.2854L31.4775 9.51438Z" fill="#591706"/>
</g>
<g style="mix-blend-mode:multiply">
<path d="M36.5291 31.4965C37.4476 32.4124 37.9069 33.7863 37.9069 35.1602C37.9069 36.5341 37.6772 37.221 36.9884 38.3659C36.2995 39.2818 35.381 39.9688 34.2329 40.6557C33.0848 41.1137 31.4774 41.5716 29.87 41.5716C28.2627 41.5716 27.1146 41.5716 25.7368 41.1137C24.3591 40.6557 23.211 40.1977 22.2925 39.5108L24.1295 36.0761C24.8183 36.5341 25.7368 36.992 26.6553 37.45C27.5738 37.679 28.7219 37.9079 29.6404 37.9079C30.5589 37.9079 31.707 37.9079 32.3959 37.221C33.0848 36.763 33.3144 36.0761 33.3144 35.3892C33.3144 33.7863 32.1663 33.0994 29.6404 33.0994H27.5738V30.1226L31.4774 25.5431H23.211V21.8794H36.7587V24.8561L32.3959 29.8937C34.0033 30.1227 35.381 30.8096 36.2995 31.7255L36.5291 31.4965Z" fill="#591706"/>
</g>
<defs>
<linearGradient id="paint0_linear_12_1243" x1="1.78081" y1="9.30199" x2="56.4267" y2="48.6362" gradientUnits="userSpaceOnUse">
<stop stop-color="#BF4500"/>
<stop offset="0.4" stop-color="#E96800"/>
<stop offset="0.7" stop-color="#7F2E00"/>
<stop offset="1" stop-color="#BF4500"/>
</linearGradient>
<linearGradient id="paint1_linear_12_1243" x1="14.0261" y1="69.736" x2="19.0546" y2="58.9631" gradientUnits="userSpaceOnUse">
<stop stop-color="#D60909"/>
<stop offset="1" stop-color="#A00505"/>
</linearGradient>
<linearGradient id="paint2_linear_12_1243" x1="48.4696" y1="69.507" x2="43.6706" y2="57.8196" gradientUnits="userSpaceOnUse">
<stop stop-color="#D60909"/>
<stop offset="1" stop-color="#A00505"/>
</linearGradient>
<linearGradient id="paint3_linear_12_1243" x1="63.9216" y1="50.9454" x2="5.44384" y2="14.3792" gradientUnits="userSpaceOnUse">
<stop stop-color="#BF4500"/>
<stop offset="0.4" stop-color="#E96800"/>
<stop offset="0.7" stop-color="#7F2E00"/>
<stop offset="1" stop-color="#BF4500"/>
</linearGradient>
<linearGradient id="paint4_linear_12_1243" x1="50.1812" y1="49.5586" x2="4.15717" y2="3.1755" gradientUnits="userSpaceOnUse">
<stop stop-color="#BF4500"/>
<stop offset="0.4" stop-color="#E96800"/>
<stop offset="0.7" stop-color="#7F2E00"/>
<stop offset="1" stop-color="#BF4500"/>
</linearGradient>
</defs>
</svg>
