<svg width="30" height="41" viewBox="0 0 30 41" fill="none" xmlns="http://www.w3.org/2000/svg">
<path d="M10.6447 8.60046L0 36.0194L8.5056 32.8873L12.6056 41L23.2758 13.5811L10.6447 8.60046Z" fill="#A20505"/>
<path d="M18.7428 8.60046L29.413 36.0194L20.9074 32.8873L16.8074 41L6.13722 13.5811L18.7428 8.60046Z" fill="#D50909"/>
<path d="M14.7957 29.4728C0.483876 24.7233 1.50251 6.57233 1.50251 6.57233C7.2578 0.770195 14.6938 0 14.6938 0C14.6938 0 22.1553 0.770195 27.9106 6.57233C27.9106 6.57233 28.9292 24.7233 14.6174 29.4728H14.7957Z" fill="#FFD34D"/>
<path d="M14.6938 27.4188L14.4646 27.3161C4.40555 23.3111 3.43785 11.2961 3.38692 7.70184V7.41943L3.59064 7.21405C8.0217 3.20903 13.1403 2.18211 14.5919 1.95105H14.7956C16.2726 2.18211 21.4167 3.26038 25.7969 7.21405L26.0006 7.41943V7.70184C25.9751 9.2679 25.7714 12.4257 24.7528 15.8146C22.9956 21.5653 19.6851 25.442 14.923 27.3161L14.6938 27.4188ZM4.66021 7.98424C4.76207 11.6555 5.83164 22.3355 14.6938 26.0325C18.972 24.261 21.9515 20.6925 23.5304 15.4295C24.4472 12.4 24.6764 9.57598 24.7273 7.98424C20.6782 4.44135 15.8652 3.44009 14.6938 3.23471C13.5223 3.41442 8.76021 4.39 4.66021 7.98424Z" fill="#F2BA49"/>
</svg>
